# xmcd
#
# Track frame offsets:
#	150
#	13292
#	30320
#	47716
#	63405
#	76939
#	94298
#	107763
#	123474
#	132933
#
# Disc length: 1959 seconds
#
# Revision: 1
# Processed by: cddbd v1.5.1PL2 Copyright (c) Steve Scherf et al.
# Submitted via: CDmax 2.0
#
DISCID=8007a50a
DTITLE=Frank Powell - Let Me Be Frank
DYEAR=1900
DGENRE=Country
TTITLE0=Better Way To Say Goodbye
TTITLE1=Leave The Leavin
TTITLE2=The Song I Wrote Last Night
TTITLE3=Hear You Smile
TTITLE4=Finding Our Way in the Night
TTITLE5=Miss Holdin' You
TTITLE6=Whatever You Say
TTITLE7=I Want You
TTITLE8=About You
TTITLE9=Don't Dream
EXTD=muc
EXTT0=
EXTT1=
EXTT2=
EXTT3=
EXTT4=
EXTT5=
EXTT6=
EXTT7=
EXTT8=
EXTT9=
PLAYORDER=
